# xmcd
#
# Track frame offsets: 
#        150
#        13076
#        30438
#        48452
#        60350
#        70959
#        87441
#        96384
#        107992
#        123608
#        147504
#        166647
#
# Disc length: 2377 seconds
#
# Revision: 0
# Processed by: cddbd v1.5.2PL0 Copyright (c) Steve Scherf et al.
# Submitted via: ExactAudioCopy v1.0b1
#
DISCID=a409470c
DTITLE=Dailey and Vincent - The Gospel Side Of Dailey and Vincent
DYEAR=2012
DGENRE=Country/folk
TTITLE0=Living In The Kingdom Of God
TTITLE1=Eternal Vacation
TTITLE2=Peace That Covers All The Pain
TTITLE3=Cast Aside
TTITLE4=Noah Found Grace In The Eyes Of The Lord
TTITLE5=Family Bible
TTITLE6=The Fourth Man In The Fire
TTITLE7=Until At Last I'm Home
TTITLE8=Cross Over To The Other Side Of Jordan
TTITLE9=Come Back To Me
TTITLE10=Welcome Home
TTITLE11=Daddy Sang Bass
EXTD=
EXTT0=
EXTT1=
EXTT2=
EXTT3=
EXTT4=
EXTT5=
EXTT6=
EXTT7=
EXTT8=
EXTT9=
EXTT10=
EXTT11=
PLAYORDER=
